<svg width="15" height="23" viewBox="0 0 15 23" fill="none" xmlns="http://www.w3.org/2000/svg">
<path d="M10.675 21.9375C10.2278 22.1514 9.78056 22.1759 9.33333 22.011C8.88611 21.8454 8.55556 21.5389 8.34167 21.0917L4.84167 13.5667L2.12917 17.3584C1.79861 17.825 1.36111 17.9709 0.816666 17.7959C0.272222 17.6209 0 17.2514 0 16.6875V1.72502C0 1.23891 0.218555 0.88891 0.655666 0.675021C1.09356 0.461133 1.50694 0.509744 1.89583 0.820855L13.6792 10.0959C14.1264 10.4264 14.2574 10.8542 14.0723 11.3792C13.888 11.9042 13.5139 12.1667 12.95 12.1667H8.05L11.5208 19.6042C11.7347 20.0514 11.7592 20.4986 11.5943 20.9459C11.4287 21.3931 11.1222 21.7236 10.675 21.9375Z" fill="white"/>
</svg>
